<svg xmlns="http://www.w3.org/2000/svg" width="20" height="20" viewBox="0 0 20 20"><g><g><g><g><path fill="#fff" d="M6.429 10.172l-.65 3.166a.274.274 0 0 0 .32.319l3.165-.65c.046-.026.092-.05.138-.072l6.804-6.808a.135.135 0 0 0 0-.192l-2.704-2.709a.135.135 0 0 0-.193 0l-6.803 6.808c-.027.046-.05.092-.077.138z"/></g><g><path fill="#fff" d="M17.094 11.71h-1.172a.391.391 0 0 0-.392.39v5.464H1.872V3.902H6.36a.391.391 0 0 0 .391-.392V2.343a.391.391 0 0 0-.391-.392H.896a.977.977 0 0 0-.975.976V18.54c0 .538.438.976.975.976H16.51a.977.977 0 0 0 .976-.976V12.1a.391.391 0 0 0-.392-.39z"/></g><g><path fill="#fff" d="M19.237 2.131L17.305.2a.684.684 0 0 0-.964 0l-1.426 1.425a.195.195 0 0 0 0 .277l2.62 2.62c.077.077.2.077.277 0l1.425-1.425a.684.684 0 0 0 0-.965z"/></g></g></g></g></svg>