<svg xmlns="http://www.w3.org/2000/svg" width="21" height="18" viewBox="0 0 21 18"><g><g><g><g><path fill="#09548d" d="M12.793 9.178c.799.773 1.629 1.495 2.3 2.145.097.093.24.147.389.147.149 0 .29-.054.388-.147.458-.444.99-.918 1.54-1.422v5.758l-4.617 1.182zM7.15 4.403l2.885.737c.206 1.056.9 2.047 1.732 2.975.001.002-.002.005 0 .007v8.72L7.15 15.658zm8.336-1.215c.926 0 1.667.613 1.667 1.38 0 .769-.74 1.382-1.667 1.382s-1.668-.613-1.668-1.381.74-1.381 1.668-1.381zm0-.85c-1.482 0-2.693 1.004-2.693 2.23 0 1.228 1.211 2.232 2.693 2.232 1.48 0 2.693-1.004 2.693-2.231 0-1.227-1.212-2.231-2.693-2.231zm0-1.488c2.48 0 4.483 1.648 4.488 3.699v.007c-.024 1.019-.723 2.109-1.7 3.174-.858.937-1.887 1.839-2.788 2.683-.902-.845-1.932-1.738-2.79-2.676-.974-1.066-1.675-2.162-1.699-3.181v-.007C11.002 2.497 13.004.85 15.486.85zm0-.85c-2.908 0-5.299 1.871-5.499 4.237L6.79 3.413a.62.62 0 0 0-.2-.013.618.618 0 0 0-.104.013L.842 4.861c-.217.056-.363.223-.36.412v4.502c0 .235.23.425.513.425.283 0 .513-.19.513-.425v-4.19l4.616-1.182v11.256L1.508 16.84v-5.366c0-.235-.23-.425-.513-.425-.284 0-.513.19-.513.425v5.95c0 .136.078.262.209.342.131.08.3.104.456.064l5.49-1.409 5.49 1.408c.1.026.206.026.305 0l5.642-1.448c.214-.055.36-.218.361-.404V8.925c.224-.221.447-.447.657-.677 1.036-1.13 1.88-2.357 1.908-3.679a.37.37 0 0 0 0-.013C21 2.04 18.523 0 15.486 0z"/></g></g></g></g></svg>