<svg xmlns="http://www.w3.org/2000/svg" width="26" height="18" viewBox="0 0 26 18"><g><g><g><path fill="#fff" d="M10.124 9.547l2.067 1.846c.69.618 1.75.618 2.44 0l2.066-1.846 6.726 6.09H3.399zm14.129-6.768v12.147L17.51 8.819zm-21.685 0l6.743 6.04-6.743 6.107zm.847-.695h19.99l-9.503 8.505c-.23.206-.752.206-.983 0zM3.111 1c-.892 0-1.627.735-1.627 1.627v12.468c0 .891.735 1.626 1.627 1.626h20.6c.891 0 1.626-.735 1.626-1.626V2.627c0-.892-.735-1.627-1.626-1.627z"/><path fill="none" stroke="#fff" stroke-miterlimit="20" stroke-width=".5" d="M10.124 9.547l2.067 1.846c.69.618 1.75.618 2.44 0l2.066-1.846 6.726 6.09H3.399zm14.129-6.768v12.147L17.51 8.819zm-21.685 0l6.743 6.04-6.743 6.107zm.847-.695h19.99l-9.503 8.505c-.23.206-.752.206-.983 0zM3.111 1c-.892 0-1.627.735-1.627 1.627v12.468c0 .891.735 1.626 1.627 1.626h20.6c.891 0 1.626-.735 1.626-1.626V2.627c0-.892-.735-1.627-1.626-1.627z"/></g></g></g></svg>