<svg xmlns="http://www.w3.org/2000/svg" width="14" height="20" viewBox="0 0 14 20"><g><g><g><path fill="#09548d" d="M11.79 16.211v.737H2.21v-.737zm0-2.21v.737H2.21V14zm0-2.21v.736H2.21v-.737zm0-2.212v.737H2.21V9.58zm0-2.21v.737H2.21v-.737zM7.37 2.948v.736H2.21v-.736zm0 2.21v.737H2.21v-.737zM9.58 0v4.42c0 .407.332.738.73.738h3.691zm-.737 0zm0 0H1.48a1.48 1.48 0 0 0-1.48 1.48v16.937c0 .816.656 1.479 1.472 1.479h11.056a1.47 1.47 0 0 0 1.472-1.472V5.895h-3.68a1.472 1.472 0 0 1-1.478-1.472z"/></g></g></g></svg>