<svg xmlns="http://www.w3.org/2000/svg" width="23" height="24" viewBox="0 0 23 24"><g><g><g><g><g><path fill="#fff" d="M17.158 10.792a.738.738 0 0 0-.673-.433h-2.96V.739a.74.74 0 0 0-.74-.739h-2.96a.74.74 0 0 0-.74.74v9.619h-2.96a.74.74 0 0 0-.556 1.226l5.18 5.92a.737.737 0 0 0 1.113 0l5.179-5.92a.738.738 0 0 0 .117-.793z"/></g></g></g><g><g><g><path fill="#fff" d="M19.444 16.278v4.44H3.166v-4.44H.206v5.92c0 .818.664 1.479 1.48 1.479h19.238c.818 0 1.48-.661 1.48-1.48v-5.92z"/></g></g></g></g></g></svg>