<svg xmlns="http://www.w3.org/2000/svg" width="18" height="18" viewBox="0 0 18 18"><g><g><path fill="#333" d="M16.647 11.262a.45.45 0 0 0-.45.45V15.7c0 .744-.603 1.346-1.347 1.347H2.246A1.349 1.349 0 0 1 .898 15.7V3.994a1.35 1.35 0 0 1 1.348-1.348h3.988a.45.45 0 1 0 0-.898H2.246A2.249 2.249 0 0 0 0 3.994V15.7a2.249 2.249 0 0 0 2.246 2.246H14.85a2.249 2.249 0 0 0 2.246-2.246V11.71a.45.45 0 0 0-.45-.449z"/></g><g><path fill="#333" d="M16.81 3.343l-.476.476-2.116-2.115.477-.477a1.123 1.123 0 0 1 1.588 0l.527.527c.438.44.438 1.15 0 1.589zM6.602 9.746l1.69 1.69-2.338.648zm.422-.848l6.559-6.559 2.115 2.115-6.559 6.56zM16.918.592c-.79-.79-2.07-.79-2.859 0L6.045 8.606a.45.45 0 0 0-.115.198l-1.054 3.804a.45.45 0 0 0 .553.553l3.805-1.054a.449.449 0 0 0 .197-.115l8.014-8.014a2.024 2.024 0 0 0 0-2.859z"/></g></g></svg>