<svg xmlns="http://www.w3.org/2000/svg" width="14" height="14" viewBox="0 0 14 14"><g><g><g><path fill="#09548d" d="M12.667 6a.666.666 0 0 0-.667.667V12a.667.667 0 0 1-.667.667H2A.667.667 0 0 1 1.333 12V2.667C1.333 2.299 1.632 2 2 2h5.333a.666.666 0 1 0 0-1.333H2c-1.103 0-2 .897-2 2V12c0 1.103.897 2 2 2h9.333c1.103 0 2-.897 2-2V6.667A.666.666 0 0 0 12.667 6z"/></g><g><path fill="#09548d" d="M4.25 7.392a.337.337 0 0 0-.09.17L3.687 9.92a.334.334 0 0 0 .393.391l2.356-.47a.332.332 0 0 0 .171-.092l5.275-5.275-2.357-2.356z"/></g><g><path fill="#09548d" d="M13.512.488a1.668 1.668 0 0 0-2.357 0l-.922.922 2.356 2.357.923-.923c.315-.314.488-.733.488-1.178 0-.445-.173-.864-.488-1.178z"/></g></g></g></svg>