<svg xmlns="http://www.w3.org/2000/svg" width="22" height="18" viewBox="0 0 22 18"><g><g><g><path fill="#858585" d="M6 15c0 .564.436 1 1 1 .564 0 1-.436 1-1 0-.564-.436-1-1-1-.564 0-1 .436-1 1zm3.813-1H21a1 1 0 1 1 0 2H9.812C9.396 17.157 8.293 18 7 18c-1.299 0-2.405-.85-2.818-2.016A1 1 0 0 1 4 16H1a1 1 0 1 1 0-2h3a1 1 0 0 1 .182.014C4.595 12.849 5.702 12 7 12c1.293 0 2.395.843 2.813 2zm4.199-5.059c.002.039.002.077 0 .116.03.534.444.943.988.943.564 0 1-.436 1-1 0-.564-.436-1-1-1a.978.978 0 0 0-.988.941zm3.8-.941H21a1 1 0 1 1 0 2h-3.188c-.417 1.157-1.519 2-2.812 2s-2.395-.843-2.813-2H1a1 1 0 1 1 0-2h11.188c.417-1.157 1.519-2 2.812-2s2.395.843 2.813 2zM8 3c0 .564.436 1 1 1 .564 0 1-.436 1-1 0-.564-.436-1-1-1-.564 0-1 .436-1 1zm3.813-1H21a1 1 0 1 1 0 2h-9.188C11.396 5.157 10.293 6 9 6s-2.395-.843-2.813-2H1a1 1 0 1 1 0-2h5.188C6.604.843 7.707 0 9 0s2.395.843 2.813 2z"/></g></g></g></svg>