<svg xmlns="http://www.w3.org/2000/svg" width="80" height="80" viewBox="0 0 80 80"><g><g><g><g><g><path fill="#09548d" d="M77.333 57.333c0 2.206-1.794 4-4 4H60c-.737 0-1.333.596-1.333 1.334v14.666H52V58.667c0-2.206 1.795-4 4-4h8c.737 0 1.333-.596 1.333-1.334v-12c0-.737-.596-1.333-1.333-1.333H52.552L41.885 29.333l3.448-3.448 8.391 8.391c.25.25.588.39.943.39h18.666c2.206 0 4 1.795 4 4zM61.333 24c0-4.412 3.588-8 8-8s8 3.588 8 8-3.588 8-8 8-8-3.588-8-8zM30.667 52H13.333V41.333h-2.666v12c0 .738.596 1.334 1.333 1.334h12c2.205 0 4 1.794 4 4v18.666h-6.667V62.667c0-.738-.596-1.334-1.333-1.334H6.667c-2.206 0-4-1.794-4-4V38.667c0-2.206 1.794-4 4-4h8c2.205 0 4 1.794 4 4v6.666c0 .738.596 1.334 1.333 1.334h10.667zm-28-28c0-4.412 3.588-8 8-8s8 3.588 8 8-3.588 8-8 8-8-3.588-8-8zm73.112 8.479C78.337 30.529 80 27.459 80 24c0-5.881-4.785-10.667-10.667-10.667-5.881 0-10.666 4.786-10.666 10.667 0 3.187 1.412 6.044 3.634 8H55.22l-8.943-8.943a1.332 1.332 0 0 0-1.885 0l-5.334 5.334a1.332 1.332 0 0 0 0 1.885l12 12c.25.25.588.39.943.39h10.667V52H39.824l6.619-9.927-2.219-1.478L36.62 52h-3.287v-6.667c0-.737-.596-1.333-1.333-1.333H21.333v-5.333c0-2.811-1.754-5.21-4.221-6.188 2.559-1.95 4.221-5.02 4.221-8.479 0-5.881-4.785-10.667-10.666-10.667C4.785 13.333 0 18.12 0 24c0 3.459 1.663 6.53 4.221 8.479C1.755 33.457 0 35.856 0 38.667v18.666A6.674 6.674 0 0 0 6.667 64v16h2.666V64h9.334v14.667c0 .737.596 1.333 1.333 1.333h9.333c.738 0 1.334-.596 1.334-1.333v-20c0-1.5-.498-2.886-1.336-4h9.336v22.666h-5.334V80h13.334v-2.667h-5.334V54.667h9.368c-.846 1.117-1.368 2.493-1.368 4v20c0 .737.596 1.333 1.334 1.333H60c.737 0 1.333-.596 1.333-1.333V64h9.334v16h2.666V64A6.674 6.674 0 0 0 80 57.333V38.667c0-2.811-1.755-5.21-4.221-6.188z"/></g></g></g><g><g><g><path fill="#09548d" d="M54.667 14.667c0 .736-.598 1.333-1.334 1.333H38.667c-.355 0-.694.14-.943.39l-7.057 7.058v-6.115c0-.737-.596-1.333-1.334-1.333h-2.666a1.334 1.334 0 0 1-1.334-1.333V4c0-.736.598-1.333 1.334-1.333h26.666c.736 0 1.334.597 1.334 1.333zM53.333 0H26.667c-2.206 0-4 1.795-4 4v10.667c0 2.205 1.794 4 4 4H28v8a1.332 1.332 0 0 0 2.276.942l8.943-8.942h14.114c2.206 0 4-1.795 4-4V4c0-2.205-1.794-4-4-4z"/></g></g></g><g><g><g><path fill="#09548d" d="M28 8V5.333h8V8z"/></g></g></g><g><g><g><path fill="#09548d" d="M28 13.333v-2.666h24v2.666z"/></g></g></g><g><g><g><path fill="#09548d" d="M38.667 8V5.333H52V8z"/></g></g></g></g></g></svg>