<svg xmlns="http://www.w3.org/2000/svg" width="21" height="18" viewBox="0 0 21 18"><g><g><path fill="#09548d" d="M12.311 9.178c.8.773 1.63 1.495 2.3 2.145.098.093.24.147.39.147.148 0 .29-.054.388-.147.458-.444.99-.918 1.539-1.422v5.758l-4.617 1.182zM6.67 4.403l2.885.737c.206 1.056.9 2.046 1.731 2.975.002.002-.001.005 0 .007v8.72L6.67 15.658zm8.335-1.215c.927 0 1.667.613 1.667 1.38 0 .769-.74 1.382-1.667 1.382s-1.667-.613-1.667-1.381.74-1.381 1.667-1.381zm0-.85c-1.481 0-2.693 1.003-2.693 2.23 0 1.228 1.212 2.232 2.693 2.232s2.693-1.004 2.693-2.231c0-1.228-1.212-2.232-2.693-2.232zm0-1.488c2.481 0 4.484 1.647 4.488 3.699v.007c-.024 1.019-.722 2.108-1.699 3.174-.858.937-1.887 1.839-2.789 2.683-.902-.845-1.931-1.739-2.79-2.677-.973-1.065-1.674-2.161-1.698-3.18v-.007c.004-2.052 2.007-3.7 4.488-3.7zm0-.85C12.097 0 9.706 1.87 9.506 4.237l-3.198-.824a.62.62 0 0 0-.2-.013.618.618 0 0 0-.105.013L.361 4.861c-.217.056-.364.223-.36.412v4.502c0 .235.229.425.512.425.284 0 .513-.19.513-.425v-4.19l4.617-1.182v11.256L1.026 16.84v-5.366c0-.235-.23-.425-.513-.425-.283 0-.513.19-.513.425v5.95c0 .135.078.262.21.342.13.08.3.104.456.064l5.49-1.409 5.49 1.408c.1.026.205.026.304 0l5.643-1.448c.214-.055.36-.218.36-.404V8.925c.224-.221.447-.448.658-.677 1.035-1.13 1.88-2.357 1.907-3.68a.37.37 0 0 0 0-.012C20.518 2.04 18.042 0 15.004 0z"/></g></g></svg>