<svg xmlns="http://www.w3.org/2000/svg" width="21" height="14" viewBox="0 0 21 14"><g><g><g><path fill="#09548d" d="M19.7 10.726c0 .925-.756 1.661-1.66 1.661H2.96a1.665 1.665 0 0 1-1.66-1.661V2.44c0-.926.756-1.662 1.66-1.662h15.08c.925 0 1.66.757 1.66 1.662v8.286zM2.96 0A2.464 2.464 0 0 0 .5 2.46v8.287a2.464 2.464 0 0 0 2.46 2.46h15.08a2.464 2.464 0 0 0 2.46-2.46V2.44A2.478 2.478 0 0 0 18.018 0z"/></g><g><path fill="#09548d" d="M17.198 3.092h-5.552a.4.4 0 0 0-.4.4c0 .23.169.399.4.399h5.552a.4.4 0 0 0 .4-.4c0-.231-.168-.4-.4-.4z"/></g><g><path fill="#09548d" d="M17.198 6.183h-5.552a.4.4 0 0 0-.4.4c0 .23.169.4.4.4h5.552a.4.4 0 0 0 .4-.4c0-.232-.168-.4-.4-.4z"/></g><g><path fill="#09548d" d="M17.198 9.296h-5.552a.4.4 0 1 0 0 .799h5.552a.4.4 0 0 0 .4-.4c0-.231-.168-.4-.4-.4z"/></g><g><path fill="#09548d" d="M6.241 9.905c-1.198 0-2.187-.357-2.187-.799 0-1.367.989-2.481 2.187-2.481 1.2 0 2.188 1.114 2.188 2.481.02.442-.989.8-2.188.8zM5.064 4.67c0-.652.525-1.178 1.177-1.178S7.42 4.017 7.42 4.67c0 .652-.526 1.178-1.178 1.178a1.176 1.176 0 0 1-1.177-1.178zm2.46 1.493c.42-.358.694-.904.694-1.493a1.975 1.975 0 0 0-1.977-1.977 1.975 1.975 0 0 0-1.977 1.977c0 .61.274 1.135.694 1.493-1.009.526-1.703 1.64-1.703 2.944 0 .316.147.884 1.052 1.262.525.21 1.198.337 1.934.337 1.493 0 2.987-.484 2.987-1.578 0-1.304-.694-2.44-1.704-2.965z"/></g></g></g></svg>