<svg xmlns="http://www.w3.org/2000/svg" width="21" height="20" viewBox="0 0 21 20"><g><g><g><g><path fill="#09548d" d="M9.242.863s.02-.021.042-.021h1.642c.042 0 .063.021.063.063v1.642c0 .042-.021.063-.063.063H9.284c-.042 0-.063-.021-.063-.063V.905c0-.021 0-.042.02-.042zm0 0zm1.684 2.568a.89.89 0 0 0 .884-.884V.905a.89.89 0 0 0-.884-.884H9.284a.891.891 0 0 0-.632.253.857.857 0 0 0-.252.631v1.642c.02.484.4.884.884.884z"/></g><g><path fill="#09548d" d="M13.62.82h1.642c.042 0 .063.022.063.064v1.642c0 .042-.021.063-.063.063H13.62c-.042 0-.063-.021-.063-.063V.884c-.021-.021.02-.042.063-.063zm0 2.59h1.642a.89.89 0 0 0 .884-.884V.884A.89.89 0 0 0 15.262 0H13.62a.89.89 0 0 0-.884.884v1.642c0 .484.4.884.884.884z"/></g><g><path fill="#09548d" d="M17.935.82h1.642c.042 0 .063.022.063.064v1.642c0 .02-.021.042-.021.042s-.021.021-.042.021h-1.642c-.042 0-.063-.021-.063-.063V.884c0-.042.02-.063.063-.063zm0 2.59h1.642a.891.891 0 0 0 .631-.253.857.857 0 0 0 .253-.631V.884A.89.89 0 0 0 19.577 0h-1.642a.89.89 0 0 0-.884.884v1.642c.02.484.4.884.884.884z"/></g><g><path fill="#09548d" d="M10.926 6.925H9.284c-.021 0-.042-.021-.042-.021s-.021-.021-.021-.042V5.22c0-.021.02-.042.02-.042s.022-.021.043-.021h1.642c.042 0 .063.02.063.063v1.642c.02.042-.021.063-.063.063zm0-2.568H9.284a.891.891 0 0 0-.632.253.857.857 0 0 0-.252.631v1.642c0 .231.084.463.252.631a.857.857 0 0 0 .632.253h1.642a.89.89 0 0 0 .884-.884V5.24c0-.505-.4-.884-.884-.884z"/></g><g><path fill="#09548d" d="M13.62 6.925c-.042 0-.063-.021-.063-.063V5.22c0-.021.02-.042.02-.042s.022-.021.043-.021h1.642c.042 0 .063.02.063.063v1.642c0 .02-.021.063-.063.063zm1.642-2.589H13.62a.891.891 0 0 0-.632.253.857.857 0 0 0-.252.631v1.642c0 .484.4.884.884.884h1.642a.89.89 0 0 0 .884-.884V5.22a.89.89 0 0 0-.884-.884z"/></g><g><path fill="#09548d" d="M17.956 5.136h1.642c.042 0 .063.02.063.063v1.642c0 .02-.021.042-.021.042s-.021.02-.042.02h-1.642c-.042 0-.063-.02-.063-.062V5.199c0-.021.02-.063.063-.063zm0 2.589h1.642a.891.891 0 0 0 .631-.253.857.857 0 0 0 .253-.631V5.199a.89.89 0 0 0-.884-.884h-1.642a.89.89 0 0 0-.884.884v1.642c0 .484.4.884.884.884z"/></g><g><path fill="#09548d" d="M10.947 11.261H9.305c-.021 0-.042-.021-.042-.021s-.021-.021-.021-.042V9.556c0-.021.02-.042.02-.042s.022-.021.043-.021h1.642c.042 0 .063.02.063.063v1.642c0 .02-.021.063-.063.063zm0-2.589H9.305a.891.891 0 0 0-.632.253.857.857 0 0 0-.252.631v1.642c0 .231.084.463.252.631a.857.857 0 0 0 .632.253h1.642a.89.89 0 0 0 .884-.884V9.556a.89.89 0 0 0-.884-.884z"/></g><g><path fill="#09548d" d="M15.283 11.24H13.64c-.021 0-.042-.021-.042-.021s-.021-.021-.021-.042V9.535c0-.021.02-.042.02-.042s.022-.021.043-.021h1.642c.042 0 .063.02.063.063v1.642c0 .042-.042.063-.063.063zm-.021-2.568H13.62a.891.891 0 0 0-.632.253.857.857 0 0 0-.252.631v1.642c0 .231.084.463.252.631a.857.857 0 0 0 .632.253h1.642a.89.89 0 0 0 .884-.884V9.556c0-.505-.4-.884-.884-.884z"/></g><g><path fill="#09548d" d="M19.64 11.219s-.021.02-.042.02h-1.642c-.042 0-.063-.02-.063-.062V9.535c0-.042.02-.063.063-.063h1.642c.042 0 .063.02.063.063v1.642c0 .02 0 .02-.021.042zm.842-1.684a.89.89 0 0 0-.884-.884h-1.642a.89.89 0 0 0-.884.884v1.642c0 .484.4.884.884.884h1.642a.891.891 0 0 0 .631-.253.857.857 0 0 0 .253-.631z"/></g><g><path fill="#09548d" d="M13.872 17.218c-.21.484-.8 1.242-1.052 1.494-.59.59-1.726.61-3.157.084-1.537-.568-3.22-1.726-4.736-3.241-1.516-1.516-2.673-3.2-3.242-4.736-.526-1.431-.505-2.568.084-3.157.253-.253 1.032-.863 1.495-1.053.084-.042.147-.042.231-.042a.62.62 0 0 1 .464.232l1.6 2.02c.189.253.168.61-.085.8-.4.358-.716.61-.8.695-.442.442-.4 1.031.105 1.789.4.59 1.053 1.263 1.684 1.894.632.632 1.305 1.284 1.895 1.684.757.505 1.368.547 1.789.105.084-.084.358-.378.694-.8.21-.23.569-.273.8-.084l2.02 1.6c.253.19.317.463.211.716zm.337-1.326l-2.02-1.6a1.414 1.414 0 0 0-1.937.19c-.379.42-.61.694-.652.757-.127.126-.38.063-.78-.21-.525-.358-1.157-.969-1.767-1.579-.61-.61-1.242-1.242-1.579-1.768-.253-.379-.337-.653-.21-.779.063-.063.315-.295.757-.652a1.412 1.412 0 0 0 .19-1.937L4.59 6.272a1.402 1.402 0 0 0-1.663-.42c-.61.252-1.473.947-1.747 1.241-.82.821-.926 2.253-.274 4.02.61 1.663 1.832 3.432 3.431 5.031 1.6 1.6 3.39 2.82 5.031 3.431.779.295 1.473.421 2.105.421.8 0 1.452-.231 1.915-.694.295-.295.969-1.158 1.242-1.747.253-.59.084-1.284-.42-1.663z"/></g></g></g></g></svg>