<svg xmlns="http://www.w3.org/2000/svg" width="15" height="15" viewBox="0 0 15 15"><g><g><path fill="#fff" d="M13.391 11.718c-.21.484-.8 1.242-1.052 1.494-.59.59-1.726.61-3.158.084-1.536-.568-3.22-1.726-4.736-3.241-1.515-1.516-2.673-3.2-3.241-4.736-.526-1.431-.505-2.568.084-3.157.253-.253 1.031-.863 1.494-1.053.085-.042.148-.042.232-.042a.62.62 0 0 1 .463.232l1.6 2.02c.19.253.168.61-.084.8-.4.358-.716.61-.8.695-.442.442-.4 1.031.105 1.789.4.59 1.052 1.263 1.684 1.894.631.632 1.305 1.284 1.894 1.684.758.505 1.368.547 1.79.105.084-.084.357-.378.694-.8.21-.23.568-.273.8-.084l2.02 1.6c.253.19.316.463.21.716zm.337-1.326l-2.02-1.6a1.414 1.414 0 0 0-1.937.19c-.38.42-.61.694-.653.757-.126.126-.379.063-.779-.21-.526-.358-1.157-.969-1.768-1.579-.61-.61-1.242-1.242-1.578-1.768-.253-.379-.337-.653-.21-.779.062-.063.315-.295.757-.652a1.412 1.412 0 0 0 .19-1.937L4.108.772a1.402 1.402 0 0 0-1.663-.42C1.836.604.972 1.299.699 1.593c-.821.821-.926 2.253-.274 4.02.61 1.663 1.831 3.432 3.431 5.031 1.6 1.6 3.389 2.82 5.03 3.431.78.295 1.474.421 2.105.421.8 0 1.453-.231 1.916-.694.295-.295.968-1.158 1.242-1.747.252-.59.084-1.284-.421-1.663z"/></g></g></svg>