<svg xmlns="http://www.w3.org/2000/svg" width="30" height="24" viewBox="0 0 30 24"><g><g><g><g/><g><path fill="#09548d" d="M25.431 10.143h-6.189a.558.558 0 1 1 0-1.116h6.189a.558.558 0 1 1 0 1.116z"/></g><g><path fill="#09548d" d="M25.431 12.444h-6.189a.558.558 0 1 1 0-1.113h6.189a.558.558 0 1 1 0 1.113z"/></g><g><path fill="#09548d" d="M23.082 14.745h-3.84a.558.558 0 1 1 0-1.113h3.84a.558.558 0 1 1 0 1.113z"/></g><g><path fill="#09548d" d="M15.456 5.235c0 2.832-2.295 6.246-5.124 6.246-2.829 0-5.127-3.414-5.127-6.246a5.127 5.127 0 0 1 10.251 0z"/></g><g><path fill="#09548d" d="M20.061 20.07c0 4.179-2.631 3.813-9.729 3.813-7.428 0-9.732.366-9.732-3.813s5.553-7.566 9.732-7.566c4.179 0 9.729 3.396 9.729 7.566z"/></g><g><path fill="#09548d" d="M26.943 4.971H12a2.436 2.436 0 0 0-2.457 2.4v1.284h1.137V7.383A1.311 1.311 0 0 1 12 6.084h14.94a1.311 1.311 0 0 1 1.32 1.299v9a1.308 1.308 0 0 1-1.317 1.317H12a1.308 1.308 0 0 1-1.32-1.296v-2.796H9.546v2.784a2.436 2.436 0 0 0 2.457 2.4h14.94a2.436 2.436 0 0 0 2.457-2.4v-9a2.436 2.436 0 0 0-2.457-2.421z"/></g></g></g></g></svg>