<svg xmlns="http://www.w3.org/2000/svg" width="15" height="19" viewBox="0 0 15 19"><g><g><g><g><g><path fill="#333" d="M9.783 7.248a.423.423 0 0 0-.423.423v7.994a.423.423 0 0 0 .846 0V7.671a.423.423 0 0 0-.423-.423z"/></g><g><path fill="#333" d="M4.792 7.248a.423.423 0 0 0-.423.423v7.994a.423.423 0 0 0 .846 0V7.671a.423.423 0 0 0-.423-.423z"/></g><g><path fill="#333" d="M1.569 3.75h11.437a.761.761 0 1 1 0 1.523H1.57a.761.761 0 1 1 0-1.523zm3.012-1.375a.814.814 0 0 1 .829-.824h3.756a.815.815 0 0 1 .829.824v.53H4.58zM3.286 17.92C2.563 17.92 2 17.298 2 16.503V6.119h10.575v10.384c0 .795-.563 1.417-1.286 1.417zM1.154 6.082v10.42c0 .617.226 1.195.62 1.61.394.416.94.653 1.512.654h8.003a2.082 2.082 0 0 0 1.511-.654c.395-.415.62-.993.62-1.61V6.083a1.616 1.616 0 0 0-.414-3.178h-2.165v-.529A1.662 1.662 0 0 0 9.166.705H5.41a1.662 1.662 0 0 0-1.675 1.67v.53H1.569a1.616 1.616 0 0 0-.415 3.177z"/></g><g><path fill="#333" d="M7.288 7.248a.423.423 0 0 0-.423.423v7.994a.423.423 0 0 0 .846 0V7.671a.423.423 0 0 0-.423-.423z"/></g></g></g></g></g></svg>