<svg xmlns="http://www.w3.org/2000/svg" width="25" height="22" viewBox="0 0 25 22"><g><g><path fill="#09548d" d="M23.828 21.094H1.172a.39.39 0 0 1-.39-.39V4.687h23.437v16.015a.39.39 0 0 1-.39.39zM1.172.78h22.656a.39.39 0 0 1 .39.39v2.735H.782V1.172a.39.39 0 0 1 .39-.39zM23.828 0H1.172C.526 0 0 .526 0 1.172v19.531c0 .646.526 1.172 1.172 1.172h22.656c.646 0 1.172-.526 1.172-1.172V1.172C25 .526 24.474 0 23.828 0z"/></g><g><path fill="#09548d" d="M15.381 15.509c.135-.687.214-1.438.235-2.228h2.724a5.828 5.828 0 0 1-1.33 3.346 6.645 6.645 0 0 0-1.629-1.118zm-.186.778zm1.273.903a5.85 5.85 0 0 1-2.277 1.309c.413-.556.756-1.313 1.004-2.212.458.24.884.542 1.273.903zm-5.94-1.218a5.824 5.824 0 0 1 1.972-.347c.685 0 1.348.123 1.972.347-.45 1.717-1.237 2.778-1.972 2.778-.735 0-1.523-1.06-1.972-2.778zm-.723.315c.248.9.591 1.656 1.004 2.212a5.855 5.855 0 0 1-2.277-1.31c.389-.36.815-.662 1.273-.902zm0-6.793a5.83 5.83 0 0 1-1.273-.903 5.856 5.856 0 0 1 2.277-1.309c-.413.556-.756 1.313-1.004 2.212zm4.667.315a5.824 5.824 0 0 1-1.972.347 5.824 5.824 0 0 1-1.972-.347c.45-1.717 1.237-2.778 1.972-2.778.735 0 1.522 1.06 1.972 2.778zm.723-.315zM14.19 7.282c.86.26 1.633.715 2.277 1.31-.389.36-.815.663-1.273.902-.248-.9-.591-1.655-1.004-2.212zm.644 6a12.82 12.82 0 0 1-.192 1.92 6.616 6.616 0 0 0-2.143-.358c-.743 0-1.462.126-2.143.359a12.822 12.822 0 0 1-.192-1.922zm-4.67-.782c.019-.69.085-1.335.192-1.921.68.232 1.4.358 2.143.358.743 0 1.462-.126 2.143-.358.107.586.173 1.231.192 1.921zm5.45 0c-.02-.79-.099-1.54-.234-2.227a6.614 6.614 0 0 0 1.628-1.12 5.826 5.826 0 0 1 1.33 3.347zM7.992 9.154a6.61 6.61 0 0 0 1.628 1.119 13.43 13.43 0 0 0-.235 2.227H6.66a5.831 5.831 0 0 1 1.331-3.346zm-1.33 4.127h2.723c.021.79.1 1.54.236 2.228a6.63 6.63 0 0 0-1.629 1.118 5.826 5.826 0 0 1-1.33-3.346zm10.65 4.174a6.611 6.611 0 0 0 1.83-4.564 6.611 6.611 0 0 0-1.83-4.565c-.005-.005-.007-.011-.011-.016l-.008-.005A6.618 6.618 0 0 0 12.5 6.25a6.618 6.618 0 0 0-4.792 2.055c-.003.003-.006.003-.008.006-.005.004-.007.01-.011.016a6.611 6.611 0 0 0-1.83 4.564c0 1.768.7 3.373 1.83 4.564.005.005.007.011.011.016l.008.005a6.618 6.618 0 0 0 4.792 2.055 6.616 6.616 0 0 0 4.792-2.055l.008-.005c.005-.005.006-.011.01-.016z"/><path fill="none" stroke="#09548d" stroke-miterlimit="20" stroke-width=".5" d="M15.381 15.509c.135-.687.214-1.438.235-2.228h2.724a5.828 5.828 0 0 1-1.33 3.346 6.645 6.645 0 0 0-1.629-1.118zm-.186.778s0 0 0 0 0 0 0 0zm1.273.903a5.85 5.85 0 0 1-2.277 1.309c.413-.556.756-1.313 1.004-2.212.458.24.884.542 1.273.903zm-5.94-1.218a5.824 5.824 0 0 1 1.972-.347c.685 0 1.348.123 1.972.347-.45 1.717-1.237 2.778-1.972 2.778-.735 0-1.523-1.06-1.972-2.778zm-.723.315c.248.9.591 1.656 1.004 2.212a5.855 5.855 0 0 1-2.277-1.31c.389-.36.815-.662 1.273-.902zm0-6.793a5.83 5.83 0 0 1-1.273-.903 5.856 5.856 0 0 1 2.277-1.309c-.413.556-.756 1.313-1.004 2.212zm4.667.315a5.824 5.824 0 0 1-1.972.347 5.824 5.824 0 0 1-1.972-.347c.45-1.717 1.237-2.778 1.972-2.778.735 0 1.522 1.06 1.972 2.778zm.723-.315s0 0 0 0 0 0 0 0zM14.19 7.282c.86.26 1.633.715 2.277 1.31-.389.36-.815.663-1.273.902-.248-.9-.591-1.655-1.004-2.212zm.644 6a12.82 12.82 0 0 1-.192 1.92 6.616 6.616 0 0 0-2.143-.358c-.743 0-1.462.126-2.143.359a12.822 12.822 0 0 1-.192-1.922zm-4.67-.782c.019-.69.085-1.335.192-1.921.68.232 1.4.358 2.143.358.743 0 1.462-.126 2.143-.358.107.586.173 1.231.192 1.921zm5.45 0c-.02-.79-.099-1.54-.234-2.227a6.614 6.614 0 0 0 1.628-1.12 5.826 5.826 0 0 1 1.33 3.347zM7.992 9.154a6.61 6.61 0 0 0 1.628 1.119 13.43 13.43 0 0 0-.235 2.227H6.66a5.831 5.831 0 0 1 1.331-3.346zm-1.33 4.127h2.723c.021.79.1 1.54.236 2.228a6.63 6.63 0 0 0-1.629 1.118 5.826 5.826 0 0 1-1.33-3.346zm10.65 4.174a6.611 6.611 0 0 0 1.83-4.564 6.611 6.611 0 0 0-1.83-4.565c-.005-.005-.007-.011-.011-.016l-.008-.005A6.618 6.618 0 0 0 12.5 6.25a6.618 6.618 0 0 0-4.792 2.055c-.003.003-.006.003-.008.006-.005.004-.007.01-.011.016a6.611 6.611 0 0 0-1.83 4.564c0 1.768.7 3.373 1.83 4.564.005.005.007.011.011.016l.008.005a6.618 6.618 0 0 0 4.792 2.055 6.616 6.616 0 0 0 4.792-2.055l.008-.005c.005-.005.006-.011.01-.016z"/></g><g><path fill="#09548d" d="M22.266 1.953a.39.39 0 1 1 0 .782.39.39 0 0 1 0-.782zm0 1.563c.646 0 1.172-.526 1.172-1.172 0-.646-.526-1.172-1.172-1.172-.646 0-1.172.526-1.172 1.172 0 .646.526 1.172 1.172 1.172z"/></g><g><path fill="#09548d" d="M19.14 1.953a.39.39 0 1 1 0 .782.39.39 0 0 1 0-.782zm0 1.563c.647 0 1.173-.526 1.173-1.172 0-.646-.526-1.172-1.172-1.172-.646 0-1.172.526-1.172 1.172 0 .646.526 1.172 1.172 1.172z"/></g><g><path fill="#09548d" d="M16.016 1.953a.39.39 0 1 1 0 .782.39.39 0 0 1 0-.782zm1.172.39c0-.645-.526-1.171-1.172-1.171-.646 0-1.172.526-1.172 1.172 0 .644.528 1.169 1.172 1.172.646 0 1.172-.526 1.172-1.172zm-1.172 1.173h-.005.005z"/></g><g><path fill="#09548d" d="M2.344 6.64H6.25a.39.39 0 1 0 0-.78H2.344a.39.39 0 1 0 0 .78z"/></g><g><path fill="#09548d" d="M4.297 7.422H2.344a.39.39 0 1 0 0 .781h1.953a.39.39 0 1 0 0-.781z"/></g><g><path fill="#09548d" d="M22.656 19.14H18.75a.39.39 0 1 0 0 .782h3.906a.39.39 0 1 0 0-.781z"/></g><g><path fill="#09548d" d="M22.656 17.578h-1.953a.39.39 0 1 0 0 .781h1.953a.39.39 0 1 0 0-.78z"/></g></g></svg>