<svg xmlns="http://www.w3.org/2000/svg" width="20" height="20" viewBox="0 0 20 20"><g><g><g><path fill="#09548d" d="M14.565 14.91c.409-1.457.628-2.962.652-4.475h3.913a9.078 9.078 0 0 1-2.109 5.393 12.32 12.32 0 0 0-2.456-.917zm-.27.838c.727.183 1.435.436 2.113.754a9.13 9.13 0 0 1-3.863 2.265 8.602 8.602 0 0 0 1.75-3.026zm-8.59 0a8.602 8.602 0 0 0 1.75 3.026 9.13 9.13 0 0 1-3.864-2.279c.679-.318 1.386-.57 2.113-.754zm0-11.483a11.782 11.782 0 0 1-2.114-.754 9.13 9.13 0 0 1 3.863-2.279 8.602 8.602 0 0 0-1.75 3.027zm8.59 0a8.602 8.602 0 0 0-1.75-3.033 9.13 9.13 0 0 1 3.863 2.272c-.678.318-1.386.57-2.113.755zm-3.86.517V.917c1.2.263 2.273 1.607 2.99 3.542-.985.195-1.986.303-2.99.323zm0 4.783V5.652c1.095-.02 2.186-.14 3.26-.357a16.58 16.58 0 0 1 .653 4.27zm3.26 5.14a18.205 18.205 0 0 0-3.26-.357v-3.913h3.913a16.58 16.58 0 0 1-.653 4.276zm-3.26.512c1.004.018 2.005.125 2.99.317-.717 1.935-1.79 3.279-2.99 3.542zm-.87 0v3.865c-1.2-.263-2.274-1.606-2.991-3.541a17.224 17.224 0 0 1 2.991-.324zm0-4.782v3.913c-1.095.02-2.187.14-3.26.356a16.58 16.58 0 0 1-.653-4.27zm-3.26-5.146zm3.26.363v3.913H5.652a16.58 16.58 0 0 1 .652-4.276c1.074.219 2.165.34 3.261.363zm0-.87a17.224 17.224 0 0 1-2.991-.317C7.29 2.524 8.365 1.18 9.565.917zm9.565 4.783h-3.913a17.609 17.609 0 0 0-.652-4.476 12.32 12.32 0 0 0 2.456-.917 9.078 9.078 0 0 1 2.11 5.393zM2.978 4.172c.784.392 1.607.7 2.457.917a17.608 17.608 0 0 0-.653 4.476H.87a9.078 9.078 0 0 1 2.11-5.393zm1.804 6.263c.024 1.513.244 3.018.653 4.476-.85.217-1.673.525-2.457.917A9.078 9.078 0 0 1 .88 10.435zm12.687 6.204a9.974 9.974 0 0 0 .015-13.26 9.985 9.985 0 0 0-14.97 0 9.974 9.974 0 0 0 .001 13.242 9.987 9.987 0 0 0 14.954.017z"/></g></g></g></svg>